<?xml version="1.0" encoding="UTF-8" standalone="no"?>
<!DOCTYPE svg PUBLIC "-//W3C//DTD SVG 1.1//EN" "http://www.w3.org/Graphics/SVG/1.1/DTD/svg11.dtd">
<svg version="1.1" xmlns="http://www.w3.org/2000/svg" xmlns:xlink="http://www.w3.org/1999/xlink" preserveAspectRatio="xMidYMid meet" viewBox="199.49256234630167 182.77550309200768 243.01487530739672 239.02234432234434" width="1024" height="1006.89"><defs><path d="M375.71 323.17L439.51 386.84L438.2 284.26L375.71 323.17Z" id="edIRuBblm"></path><path d="M428.86 183.78C434.1 183.78 438.35 188.02 438.35 193.26C438.35 222.03 438.35 298.89 438.35 327.66C438.35 332.9 434.1 337.14 428.86 337.14C388.64 337.14 277.46 337.14 237.24 337.14C232 337.14 227.76 332.9 227.76 327.66C227.76 298.89 227.76 222.03 227.76 193.26C227.76 188.02 232 183.78 237.24 183.78C277.46 183.78 388.64 183.78 428.86 183.78Z" id="a3jJDqJnJ5"></path><path d="M252 357.15L200.49 418.8L200.49 287.56L252 357.15Z" id="b1hK10Hcs9"></path><path d="M401.6 204.66C406.84 204.66 411.08 208.9 411.08 214.14C411.08 242.92 411.08 319.77 411.08 348.55C411.08 353.78 406.84 358.03 401.6 358.03C361.38 358.03 250.2 358.03 209.97 358.03C204.74 358.03 200.49 353.78 200.49 348.55C200.49 319.77 200.49 242.92 200.49 214.14C200.49 208.9 204.74 204.66 209.97 204.66C250.2 204.66 361.38 204.66 401.6 204.66Z" id="a2mcjpLUXu"></path></defs><g><g><use xlink:href="#edIRuBblm" opacity="1" fill="#ef5350" fill-opacity="1"></use></g><g><use xlink:href="#a3jJDqJnJ5" opacity="1" fill="#ef5350" fill-opacity="1"></use></g><g><use xlink:href="#b1hK10Hcs9" opacity="1" fill="#212121" fill-opacity="1"></use></g><g><use xlink:href="#a2mcjpLUXu" opacity="1" fill="#212121" fill-opacity="1"></use></g></g></svg>